<svg xmlns="http://www.w3.org/2000/svg" viewBox="0 0 800 600" role="img" aria-labelledby="title desc">
  <title id="title">UI illustration</title>
  <desc id="desc">Abstract responsive interface card with panels and buttons.</desc>
  <defs>
    <linearGradient id="bg" x1="0" y1="0" x2="1" y2="1">
      <stop offset="0%" stop-color="#0b1018"/>
      <stop offset="100%" stop-color="#191f2f"/>
    </linearGradient>
    <linearGradient id="panel" x1="0" y1="0" x2="1" y2="1">
      <stop offset="0%" stop-color="#64d7ff" stop-opacity="0.92"/>
      <stop offset="100%" stop-color="#ff6148" stop-opacity="0.92"/>
    </linearGradient>
  </defs>
  <rect width="800" height="600" rx="36" fill="url(#bg)"/>
  <rect x="96" y="92" width="608" height="416" rx="34" fill="#0f1725" stroke="#2a3955" stroke-width="2"/>
  <rect x="132" y="128" width="536" height="74" rx="20" fill="#121d31"/>
  <rect x="132" y="224" width="250" height="220" rx="24" fill="#121d31"/>
  <rect x="406" y="224" width="262" height="120" rx="24" fill="#121d31"/>
  <rect x="406" y="368" width="262" height="76" rx="24" fill="#121d31"/>
  <rect x="164" y="164" width="166" height="16" rx="8" fill="url(#panel)"/>
  <rect x="164" y="264" width="194" height="18" rx="9" fill="#dfe7ef" opacity="0.84"/>
  <rect x="164" y="298" width="154" height="14" rx="7" fill="#dfe7ef" opacity="0.52"/>
  <rect x="164" y="330" width="176" height="14" rx="7" fill="#dfe7ef" opacity="0.36"/>
  <rect x="164" y="376" width="108" height="36" rx="18" fill="#64d7ff" opacity="0.84"/>
  <rect x="290" y="376" width="74" height="36" rx="18" fill="#ff6148" opacity="0.84"/>
  <rect x="436" y="254" width="206" height="16" rx="8" fill="#64d7ff" opacity="0.9"/>
  <rect x="436" y="286" width="164" height="12" rx="6" fill="#dfe7ef" opacity="0.54"/>
  <rect x="436" y="398" width="130" height="16" rx="8" fill="#dfe7ef" opacity="0.72"/>
  <circle cx="614" cy="406" r="18" fill="url(#panel)"/>
</svg>
